<svg width="424" height="101" viewBox="0 0 424 101" fill="none" xmlns="http://www.w3.org/2000/svg">
<rect x="35" y="46" width="90" height="4" fill="#00CCCC"/>
<rect x="175" y="46" width="90" height="4" fill="#00CCCC"/>
<rect x="335" y="46" width="60" height="4" fill="#00CCCC"/>
<rect x="125" y="46" width="50" height="4" fill="#D9D9D9"/>
<rect x="265" y="46" width="70" height="4" fill="#D9D9D9"/>
<rect x="20" y="48.3137" width="16" height="16" rx="4" transform="rotate(-45 20 48.3137)" fill="#00CCCC"/>
<path d="M31.308 76.7674C30.104 76.7674 29.222 76.4174 28.662 75.7174C28.1114 75.0081 27.8174 74.0841 27.78 72.9454L27.766 71.7414L27.78 70.4954C27.808 69.3661 28.102 68.4514 28.662 67.7514C29.2314 67.0421 30.1134 66.6874 31.308 66.6874C32.512 66.6874 33.394 67.0421 33.954 67.7514C34.5234 68.4514 34.822 69.3661 34.85 70.4954C34.8594 70.7568 34.864 71.1721 34.864 71.7414C34.864 72.2921 34.8594 72.6934 34.85 72.9454C34.8127 74.0841 34.514 75.0081 33.954 75.7174C33.4034 76.4174 32.5214 76.7674 31.308 76.7674ZM31.308 75.6054C32.0267 75.6054 32.568 75.3674 32.932 74.8914C33.296 74.4154 33.4874 73.7434 33.506 72.8754C33.5154 72.6048 33.52 72.2174 33.52 71.7134C33.52 71.2001 33.5154 70.8174 33.506 70.5654C33.4874 69.7068 33.2914 69.0394 32.918 68.5634C32.554 68.0781 32.0174 67.8354 31.308 67.8354C30.5987 67.8354 30.062 68.0781 29.698 68.5634C29.334 69.0394 29.1427 69.7068 29.124 70.5654L29.11 71.7134L29.124 72.8754C29.1427 73.7434 29.334 74.4154 29.698 74.8914C30.062 75.3674 30.5987 75.6054 31.308 75.6054Z" fill="#00CCCC"/>
<rect x="110" y="48.3137" width="16" height="16" rx="4" transform="rotate(-45 110 48.3137)" fill="#00CCCC"/>
<path d="M116.844 76.7674C116.116 76.7674 115.486 76.6508 114.954 76.4174C114.422 76.1748 114.016 75.8621 113.736 75.4794C113.466 75.0968 113.321 74.7001 113.302 74.2894C113.302 74.2054 113.33 74.1401 113.386 74.0934C113.442 74.0374 113.512 74.0094 113.596 74.0094H114.226C114.329 74.0094 114.413 74.0328 114.478 74.0794C114.544 74.1168 114.595 74.1961 114.632 74.3174C114.754 74.7934 115.015 75.1294 115.416 75.3254C115.827 75.5214 116.308 75.6194 116.858 75.6194C117.53 75.6194 118.062 75.4608 118.454 75.1434C118.856 74.8168 119.056 74.3548 119.056 73.7574C119.056 72.6188 118.361 72.0494 116.97 72.0494H115.654C115.561 72.0494 115.482 72.0214 115.416 71.9654C115.36 71.9001 115.332 71.8208 115.332 71.7274V71.3634C115.332 71.2234 115.384 71.1021 115.486 70.9994L118.216 67.9754H114.072C113.979 67.9754 113.9 67.9474 113.834 67.8914C113.778 67.8354 113.75 67.7608 113.75 67.6674V67.1634C113.75 67.0608 113.778 66.9814 113.834 66.9254C113.9 66.8601 113.979 66.8274 114.072 66.8274H119.616C119.719 66.8274 119.798 66.8601 119.854 66.9254C119.92 66.9814 119.952 67.0608 119.952 67.1634V67.6254C119.952 67.7281 119.906 67.8354 119.812 67.9474L117.082 71.0134H117.306C118.258 71.0414 119.01 71.2888 119.56 71.7554C120.12 72.2221 120.4 72.9034 120.4 73.7994C120.4 74.4154 120.246 74.9474 119.938 75.3954C119.64 75.8341 119.22 76.1748 118.678 76.4174C118.137 76.6508 117.526 76.7674 116.844 76.7674ZM125.492 76.7674C124.288 76.7674 123.406 76.4174 122.846 75.7174C122.295 75.0081 122.001 74.0841 121.964 72.9454L121.95 71.7414L121.964 70.4954C121.992 69.3661 122.286 68.4514 122.846 67.7514C123.415 67.0421 124.297 66.6874 125.492 66.6874C126.696 66.6874 127.578 67.0421 128.138 67.7514C128.707 68.4514 129.006 69.3661 129.034 70.4954C129.043 70.7568 129.048 71.1721 129.048 71.7414C129.048 72.2921 129.043 72.6934 129.034 72.9454C128.996 74.0841 128.698 75.0081 128.138 75.7174C127.587 76.4174 126.705 76.7674 125.492 76.7674ZM125.492 75.6054C126.21 75.6054 126.752 75.3674 127.116 74.8914C127.48 74.4154 127.671 73.7434 127.69 72.8754C127.699 72.6048 127.704 72.2174 127.704 71.7134C127.704 71.2001 127.699 70.8174 127.69 70.5654C127.671 69.7068 127.475 69.0394 127.102 68.5634C126.738 68.0781 126.201 67.8354 125.492 67.8354C124.782 67.8354 124.246 68.0781 123.882 68.5634C123.518 69.0394 123.326 69.7068 123.308 70.5654L123.294 71.7134L123.308 72.8754C123.326 73.7434 123.518 74.4154 123.882 74.8914C124.246 75.3674 124.782 75.6054 125.492 75.6054Z" fill="#00CCCC"/>
<path d="M55.9873 33C55.8939 33 55.8193 32.972 55.7633 32.916C55.7073 32.8507 55.6793 32.7713 55.6793 32.678V23.536C55.6793 23.4333 55.7073 23.354 55.7633 23.298C55.8193 23.2327 55.8939 23.2 55.9873 23.2H61.7413C61.8439 23.2 61.9233 23.2327 61.9793 23.298C62.0446 23.354 62.0773 23.4333 62.0773 23.536V24.04C62.0773 24.1333 62.0446 24.208 61.9793 24.264C61.9233 24.32 61.8439 24.348 61.7413 24.348H56.9673V27.47H61.4333C61.5359 27.47 61.6153 27.5027 61.6713 27.568C61.7366 27.624 61.7693 27.7033 61.7693 27.806V28.282C61.7693 28.3753 61.7366 28.4547 61.6713 28.52C61.6153 28.576 61.5359 28.604 61.4333 28.604H56.9673V31.838H61.8533C61.9559 31.838 62.0353 31.8707 62.0913 31.936C62.1566 31.992 62.1893 32.0713 62.1893 32.174V32.678C62.1893 32.7713 62.1566 32.8507 62.0913 32.916C62.0259 32.972 61.9466 33 61.8533 33H55.9873ZM64.4638 33C64.3705 33 64.2958 32.972 64.2398 32.916C64.1838 32.8507 64.1558 32.7713 64.1558 32.678V23.536C64.1558 23.4333 64.1838 23.354 64.2398 23.298C64.2958 23.2327 64.3705 23.2 64.4638 23.2H65.0798C65.1732 23.2 65.2432 23.2187 65.2898 23.256C65.3365 23.2933 65.3832 23.34 65.4298 23.396L70.1198 30.62V23.536C70.1198 23.4333 70.1478 23.354 70.2038 23.298C70.2692 23.2327 70.3485 23.2 70.4418 23.2H71.0718C71.1745 23.2 71.2538 23.2327 71.3098 23.298C71.3752 23.354 71.4078 23.4333 71.4078 23.536V32.664C71.4078 32.7573 71.3752 32.8367 71.3098 32.902C71.2538 32.9673 71.1792 33 71.0858 33H70.4558C70.2972 33 70.1852 32.9347 70.1198 32.804L65.4298 25.65V32.678C65.4298 32.7713 65.3972 32.8507 65.3318 32.916C65.2758 32.972 65.2012 33 65.1078 33H64.4638ZM76.3269 33C76.2335 33 76.1542 32.972 76.0889 32.916C76.0329 32.8507 76.0049 32.7713 76.0049 32.678V24.404H73.3029C73.2095 24.404 73.1302 24.376 73.0649 24.32C73.0089 24.2547 72.9809 24.1753 72.9809 24.082V23.536C72.9809 23.4333 73.0089 23.354 73.0649 23.298C73.1302 23.2327 73.2095 23.2 73.3029 23.2H80.0229C80.1255 23.2 80.2049 23.2327 80.2609 23.298C80.3169 23.354 80.3449 23.4333 80.3449 23.536V24.082C80.3449 24.1753 80.3122 24.2547 80.2469 24.32C80.1909 24.376 80.1162 24.404 80.0229 24.404H77.3349V32.678C77.3349 32.7713 77.3022 32.8507 77.2369 32.916C77.1715 32.972 77.0922 33 76.9989 33H76.3269ZM82.2509 33C82.1576 33 82.0829 32.972 82.0269 32.916C81.9709 32.8507 81.9429 32.7713 81.9429 32.678V23.536C81.9429 23.4333 81.9709 23.354 82.0269 23.298C82.0829 23.2327 82.1576 23.2 82.2509 23.2H85.6669C86.7309 23.2 87.5616 23.452 88.1589 23.956C88.7656 24.4507 89.0689 25.174 89.0689 26.126C89.0689 26.8353 88.8916 27.4187 88.5369 27.876C88.1823 28.3333 87.6876 28.6507 87.0529 28.828L89.2089 32.566C89.2369 32.622 89.2509 32.6733 89.2509 32.72C89.2509 32.7947 89.2229 32.86 89.1669 32.916C89.1109 32.972 89.0456 33 88.9709 33H88.3549C88.2149 33 88.1029 32.9673 88.0189 32.902C87.9443 32.8367 87.8743 32.7433 87.8089 32.622L85.7509 29.038H83.2589V32.678C83.2589 32.7713 83.2263 32.8507 83.1609 32.916C83.0956 32.972 83.0163 33 82.9229 33H82.2509ZM85.6109 27.89C87.0203 27.89 87.7249 27.2973 87.7249 26.112C87.7249 24.9267 87.0203 24.334 85.6109 24.334H83.2589V27.89H85.6109ZM93.7013 33C93.608 33 93.5286 32.972 93.4633 32.916C93.4073 32.8507 93.3793 32.7713 93.3793 32.678V29.36L90.0053 23.662C89.9773 23.606 89.9633 23.5453 89.9633 23.48C89.9633 23.4053 89.9913 23.34 90.0473 23.284C90.1033 23.228 90.1686 23.2 90.2433 23.2H90.9153C91.0833 23.2 91.2046 23.2793 91.2793 23.438L94.0513 28.016L96.8093 23.438C96.9026 23.2793 97.024 23.2 97.1733 23.2H97.8453C97.92 23.2 97.9853 23.228 98.0413 23.284C98.1066 23.34 98.1393 23.4053 98.1393 23.48C98.1393 23.5267 98.1206 23.5873 98.0833 23.662L94.7093 29.36V32.678C94.7093 32.7713 94.6766 32.8507 94.6113 32.916C94.5553 32.972 94.476 33 94.3733 33H93.7013Z" fill="#00CCCC"/>
<path d="M192.303 33C192.209 33 192.135 32.972 192.079 32.916C192.023 32.8507 191.995 32.7713 191.995 32.678V23.536C191.995 23.4333 192.023 23.354 192.079 23.298C192.135 23.2327 192.209 23.2 192.303 23.2H195.719C196.783 23.2 197.613 23.452 198.211 23.956C198.817 24.4507 199.121 25.174 199.121 26.126C199.121 26.8353 198.943 27.4187 198.589 27.876C198.234 28.3333 197.739 28.6507 197.105 28.828L199.261 32.566C199.289 32.622 199.303 32.6733 199.303 32.72C199.303 32.7947 199.275 32.86 199.219 32.916C199.163 32.972 199.097 33 199.023 33H198.407C198.267 33 198.155 32.9673 198.071 32.902C197.996 32.8367 197.926 32.7433 197.861 32.622L195.803 29.038H193.311V32.678C193.311 32.7713 193.278 32.8507 193.213 32.916C193.147 32.972 193.068 33 192.975 33H192.303ZM195.663 27.89C197.072 27.89 197.777 27.2973 197.777 26.112C197.777 24.9267 197.072 24.334 195.663 24.334H193.311V27.89H195.663ZM201.463 33C201.37 33 201.295 32.972 201.239 32.916C201.183 32.8507 201.155 32.7713 201.155 32.678V23.536C201.155 23.4333 201.183 23.354 201.239 23.298C201.295 23.2327 201.37 23.2 201.463 23.2H207.217C207.32 23.2 207.399 23.2327 207.455 23.298C207.52 23.354 207.553 23.4333 207.553 23.536V24.04C207.553 24.1333 207.52 24.208 207.455 24.264C207.399 24.32 207.32 24.348 207.217 24.348H202.443V27.47H206.909C207.012 27.47 207.091 27.5027 207.147 27.568C207.212 27.624 207.245 27.7033 207.245 27.806V28.282C207.245 28.3753 207.212 28.4547 207.147 28.52C207.091 28.576 207.012 28.604 206.909 28.604H202.443V31.838H207.329C207.432 31.838 207.511 31.8707 207.567 31.936C207.632 31.992 207.665 32.0713 207.665 32.174V32.678C207.665 32.7713 207.632 32.8507 207.567 32.916C207.502 32.972 207.422 33 207.329 33H201.463ZM209.939 33C209.846 33 209.771 32.972 209.715 32.916C209.659 32.8507 209.631 32.7713 209.631 32.678V23.536C209.631 23.4333 209.659 23.354 209.715 23.298C209.771 23.2327 209.846 23.2 209.939 23.2H213.481C214.536 23.2 215.362 23.4567 215.959 23.97C216.566 24.474 216.869 25.2113 216.869 26.182C216.869 27.1527 216.566 27.89 215.959 28.394C215.362 28.898 214.536 29.15 213.481 29.15H210.961V32.678C210.961 32.7713 210.929 32.8507 210.863 32.916C210.807 32.972 210.733 33 210.639 33H209.939ZM213.411 28.016C214.821 28.016 215.525 27.4047 215.525 26.182C215.525 25.5847 215.348 25.1273 214.993 24.81C214.648 24.4927 214.121 24.334 213.411 24.334H210.961V28.016H213.411ZM218.908 33C218.815 33 218.74 32.972 218.684 32.916C218.628 32.8507 218.6 32.7713 218.6 32.678V23.536C218.6 23.4333 218.628 23.354 218.684 23.298C218.74 23.2327 218.815 23.2 218.908 23.2H224.662C224.765 23.2 224.844 23.2327 224.9 23.298C224.965 23.354 224.998 23.4333 224.998 23.536V24.04C224.998 24.1333 224.965 24.208 224.9 24.264C224.844 24.32 224.765 24.348 224.662 24.348H219.888V27.47H224.354C224.457 27.47 224.536 27.5027 224.592 27.568C224.657 27.624 224.69 27.7033 224.69 27.806V28.282C224.69 28.3753 224.657 28.4547 224.592 28.52C224.536 28.576 224.457 28.604 224.354 28.604H219.888V31.838H224.774C224.877 31.838 224.956 31.8707 225.012 31.936C225.077 31.992 225.11 32.0713 225.11 32.174V32.678C225.11 32.7713 225.077 32.8507 225.012 32.916C224.947 32.972 224.867 33 224.774 33H218.908ZM226.405 33C226.33 33 226.265 32.972 226.209 32.916C226.153 32.86 226.125 32.7947 226.125 32.72L226.153 32.566L229.625 23.508C229.699 23.3027 229.849 23.2 230.073 23.2H230.969C231.193 23.2 231.342 23.3027 231.417 23.508L234.889 32.566L234.917 32.72C234.917 32.7947 234.884 32.86 234.819 32.916C234.763 32.972 234.697 33 234.623 33H233.965C233.871 33 233.792 32.9767 233.727 32.93C233.671 32.874 233.633 32.818 233.615 32.762L232.831 30.746H228.197L227.427 32.762C227.352 32.9207 227.235 33 227.077 33H226.405ZM228.603 29.584H232.439L230.521 24.558L228.603 29.584ZM237.853 33C237.76 33 237.681 32.972 237.615 32.916C237.559 32.8507 237.531 32.7713 237.531 32.678V24.404H234.829C234.736 24.404 234.657 24.376 234.591 24.32C234.535 24.2547 234.507 24.1753 234.507 24.082V23.536C234.507 23.4333 234.535 23.354 234.591 23.298C234.657 23.2327 234.736 23.2 234.829 23.2H241.549C241.652 23.2 241.731 23.2327 241.787 23.298C241.843 23.354 241.871 23.4333 241.871 23.536V24.082C241.871 24.1753 241.839 24.2547 241.773 24.32C241.717 24.376 241.643 24.404 241.549 24.404H238.861V32.678C238.861 32.7713 238.829 32.8507 238.763 32.916C238.698 32.972 238.619 33 238.525 33H237.853Z" fill="#00CCCC"/>
<path d="M348.945 33C348.852 33 348.777 32.972 348.721 32.916C348.665 32.8507 348.637 32.7713 348.637 32.678V23.536C348.637 23.4333 348.665 23.354 348.721 23.298C348.777 23.2327 348.852 23.2 348.945 23.2H354.699C354.802 23.2 354.881 23.2327 354.937 23.298C355.003 23.354 355.035 23.4333 355.035 23.536V24.04C355.035 24.1333 355.003 24.208 354.937 24.264C354.881 24.32 354.802 24.348 354.699 24.348H349.925V27.47H354.391C354.494 27.47 354.573 27.5027 354.629 27.568C354.695 27.624 354.727 27.7033 354.727 27.806V28.282C354.727 28.3753 354.695 28.4547 354.629 28.52C354.573 28.576 354.494 28.604 354.391 28.604H349.925V31.838H354.811C354.914 31.838 354.993 31.8707 355.049 31.936C355.115 31.992 355.147 32.0713 355.147 32.174V32.678C355.147 32.7713 355.115 32.8507 355.049 32.916C354.984 32.972 354.905 33 354.811 33H348.945ZM356.512 33C356.437 33 356.372 32.972 356.316 32.916C356.26 32.86 356.232 32.7947 356.232 32.72C356.232 32.6547 356.251 32.594 356.288 32.538L359.494 28.016L356.442 23.662C356.405 23.606 356.386 23.5453 356.386 23.48C356.386 23.4053 356.414 23.34 356.47 23.284C356.526 23.228 356.591 23.2 356.666 23.2H357.464C357.595 23.2 357.716 23.2793 357.828 23.438L360.334 26.98L362.812 23.438C362.905 23.2793 363.027 23.2 363.176 23.2H363.918C363.993 23.2 364.058 23.228 364.114 23.284C364.17 23.34 364.198 23.4053 364.198 23.48C364.198 23.5453 364.179 23.606 364.142 23.662L361.118 28.03L364.324 32.538C364.361 32.594 364.38 32.6547 364.38 32.72C364.38 32.7947 364.347 32.86 364.282 32.916C364.226 32.972 364.161 33 364.086 33H363.288C363.148 33 363.027 32.9253 362.924 32.776L360.278 29.08L357.646 32.776C357.543 32.9253 357.422 33 357.282 33H356.512ZM366.254 33C366.161 33 366.086 32.972 366.03 32.916C365.974 32.8507 365.946 32.7713 365.946 32.678V23.522C365.946 23.4287 365.974 23.354 366.03 23.298C366.086 23.2327 366.161 23.2 366.254 23.2H366.954C367.057 23.2 367.136 23.228 367.192 23.284C367.248 23.34 367.276 23.4193 367.276 23.522V32.678C367.276 32.7713 367.243 32.8507 367.178 32.916C367.122 32.972 367.047 33 366.954 33H366.254ZM372.211 33C372.117 33 372.038 32.972 371.973 32.916C371.917 32.8507 371.889 32.7713 371.889 32.678V24.404H369.187C369.093 24.404 369.014 24.376 368.949 24.32C368.893 24.2547 368.865 24.1753 368.865 24.082V23.536C368.865 23.4333 368.893 23.354 368.949 23.298C369.014 23.2327 369.093 23.2 369.187 23.2H375.907C376.009 23.2 376.089 23.2327 376.145 23.298C376.201 23.354 376.229 23.4333 376.229 23.536V24.082C376.229 24.1753 376.196 24.2547 376.131 24.32C376.075 24.376 376 24.404 375.907 24.404H373.219V32.678C373.219 32.7713 373.186 32.8507 373.121 32.916C373.055 32.972 372.976 33 372.883 33H372.211Z" fill="#00CCCC"/>
<rect x="160" y="48.3137" width="16" height="16" rx="4" transform="rotate(-45 160 48.3137)" fill="#00CCCC"/>
<path d="M168.185 76.6274C168.092 76.6274 168.012 76.5994 167.947 76.5434C167.891 76.4781 167.863 76.3988 167.863 76.3054V74.2614H163.313C163.22 74.2614 163.14 74.2334 163.075 74.1774C163.019 74.1121 162.991 74.0328 162.991 73.9394V73.4214C162.991 73.2908 163.042 73.1508 163.145 73.0014L167.359 67.0654C167.406 66.9908 167.476 66.9348 167.569 66.8974C167.662 66.8508 167.765 66.8274 167.877 66.8274H168.829C168.932 66.8274 169.011 66.8554 169.067 66.9114C169.123 66.9674 169.151 67.0468 169.151 67.1494V73.0854H170.425C170.518 73.0854 170.593 73.1181 170.649 73.1834C170.714 73.2394 170.747 73.3141 170.747 73.4074V73.9394C170.747 74.0328 170.714 74.1121 170.649 74.1774C170.593 74.2334 170.518 74.2614 170.425 74.2614H169.151V76.3054C169.151 76.3988 169.118 76.4781 169.053 76.5434C168.997 76.5994 168.922 76.6274 168.829 76.6274H168.185ZM164.447 73.1134H167.877V68.2414L164.447 73.1134ZM175.635 76.7674C174.431 76.7674 173.549 76.4174 172.989 75.7174C172.438 75.0081 172.144 74.0841 172.107 72.9454L172.093 71.7414L172.107 70.4954C172.135 69.3661 172.429 68.4514 172.989 67.7514C173.558 67.0421 174.44 66.6874 175.635 66.6874C176.839 66.6874 177.721 67.0421 178.281 67.7514C178.851 68.4514 179.149 69.3661 179.177 70.4954C179.187 70.7568 179.191 71.1721 179.191 71.7414C179.191 72.2921 179.187 72.6934 179.177 72.9454C179.14 74.0841 178.841 75.0081 178.281 75.7174C177.73 76.4174 176.848 76.7674 175.635 76.7674ZM175.635 75.6054C176.354 75.6054 176.895 75.3674 177.259 74.8914C177.623 74.4154 177.814 73.7434 177.833 72.8754C177.843 72.6048 177.847 72.2174 177.847 71.7134C177.847 71.2001 177.843 70.8174 177.833 70.5654C177.814 69.7068 177.618 69.0394 177.245 68.5634C176.881 68.0781 176.344 67.8354 175.635 67.8354C174.926 67.8354 174.389 68.0781 174.025 68.5634C173.661 69.0394 173.47 69.7068 173.451 70.5654L173.437 71.7134L173.451 72.8754C173.47 73.7434 173.661 74.4154 174.025 74.8914C174.389 75.3674 174.926 75.6054 175.635 75.6054Z" fill="#00CCCC"/>
<rect x="250" y="48.3137" width="16" height="16" rx="4" transform="rotate(-45 250 48.3137)" fill="#00CCCC"/>
<path d="M255.416 76.6274C255.332 76.6274 255.262 76.5994 255.206 76.5434C255.159 76.4781 255.136 76.4034 255.136 76.3194L255.164 76.1934L258.664 68.0034H254.044C253.95 68.0034 253.871 67.9754 253.806 67.9194C253.75 67.8541 253.722 67.7748 253.722 67.6814V67.1634C253.722 67.0608 253.75 66.9814 253.806 66.9254C253.862 66.8601 253.941 66.8274 254.044 66.8274H259.756C259.858 66.8274 259.938 66.8601 259.994 66.9254C260.05 66.9814 260.078 67.0608 260.078 67.1634V67.6394C260.078 67.8074 260.04 67.9894 259.966 68.1854L256.508 76.2774C256.461 76.3801 256.41 76.4641 256.354 76.5294C256.298 76.5948 256.218 76.6274 256.116 76.6274H255.416ZM264.876 76.7674C263.672 76.7674 262.79 76.4174 262.23 75.7174C261.68 75.0081 261.386 74.0841 261.348 72.9454L261.334 71.7414L261.348 70.4954C261.376 69.3661 261.67 68.4514 262.23 67.7514C262.8 67.0421 263.682 66.6874 264.876 66.6874C266.08 66.6874 266.962 67.0421 267.522 67.7514C268.092 68.4514 268.39 69.3661 268.418 70.4954C268.428 70.7568 268.432 71.1721 268.432 71.7414C268.432 72.2921 268.428 72.6934 268.418 72.9454C268.381 74.0841 268.082 75.0081 267.522 75.7174C266.972 76.4174 266.09 76.7674 264.876 76.7674ZM264.876 75.6054C265.595 75.6054 266.136 75.3674 266.5 74.8914C266.864 74.4154 267.056 73.7434 267.074 72.8754C267.084 72.6048 267.088 72.2174 267.088 71.7134C267.088 71.2001 267.084 70.8174 267.074 70.5654C267.056 69.7068 266.86 69.0394 266.486 68.5634C266.122 68.0781 265.586 67.8354 264.876 67.8354C264.167 67.8354 263.63 68.0781 263.266 68.5634C262.902 69.0394 262.711 69.7068 262.692 70.5654L262.678 71.7134L262.692 72.8754C262.711 73.7434 262.902 74.4154 263.266 74.8914C263.63 75.3674 264.167 75.6054 264.876 75.6054Z" fill="#00CCCC"/>
<rect x="320" y="48.3137" width="16" height="16" rx="4" transform="rotate(-45 320 48.3137)" fill="#00CCCC"/>
<path d="M325.464 76.6274C325.38 76.6274 325.31 76.5994 325.254 76.5434C325.208 76.4781 325.184 76.4034 325.184 76.3194C325.184 76.2541 325.203 76.1934 325.24 76.1374L327.396 73.1414C327.172 73.1974 326.911 73.2254 326.612 73.2254C325.94 73.2161 325.352 73.0621 324.848 72.7634C324.344 72.4554 323.957 72.0588 323.686 71.5734C323.425 71.0788 323.294 70.5514 323.294 69.9914C323.294 69.4314 323.425 68.8994 323.686 68.3954C323.957 67.8914 324.354 67.4808 324.876 67.1634C325.408 66.8461 326.048 66.6874 326.794 66.6874C327.541 66.6874 328.18 66.8414 328.712 67.1494C329.244 67.4574 329.646 67.8634 329.916 68.3674C330.187 68.8621 330.322 69.3941 330.322 69.9634C330.322 70.4768 330.229 70.9294 330.042 71.3214C329.865 71.7134 329.627 72.1194 329.328 72.5394L326.612 76.3474C326.547 76.4314 326.482 76.5014 326.416 76.5574C326.36 76.6041 326.276 76.6274 326.164 76.6274H325.464ZM326.794 72.1194C327.196 72.1194 327.564 72.0308 327.9 71.8534C328.236 71.6761 328.502 71.4288 328.698 71.1114C328.894 70.7848 328.992 70.4114 328.992 69.9914C328.992 69.5621 328.894 69.1841 328.698 68.8574C328.502 68.5308 328.236 68.2788 327.9 68.1014C327.564 67.9241 327.196 67.8354 326.794 67.8354C326.402 67.8354 326.038 67.9241 325.702 68.1014C325.376 68.2788 325.114 68.5308 324.918 68.8574C324.722 69.1841 324.624 69.5621 324.624 69.9914C324.624 70.4114 324.722 70.7848 324.918 71.1114C325.114 71.4288 325.376 71.6761 325.702 71.8534C326.029 72.0308 326.393 72.1194 326.794 72.1194ZM335.444 76.7674C334.24 76.7674 333.358 76.4174 332.798 75.7174C332.247 75.0081 331.953 74.0841 331.916 72.9454L331.902 71.7414L331.916 70.4954C331.944 69.3661 332.238 68.4514 332.798 67.7514C333.367 67.0421 334.249 66.6874 335.444 66.6874C336.648 66.6874 337.53 67.0421 338.09 67.7514C338.659 68.4514 338.958 69.3661 338.986 70.4954C338.995 70.7568 339 71.1721 339 71.7414C339 72.2921 338.995 72.6934 338.986 72.9454C338.948 74.0841 338.65 75.0081 338.09 75.7174C337.539 76.4174 336.657 76.7674 335.444 76.7674ZM335.444 75.6054C336.162 75.6054 336.704 75.3674 337.068 74.8914C337.432 74.4154 337.623 73.7434 337.642 72.8754C337.651 72.6048 337.656 72.2174 337.656 71.7134C337.656 71.2001 337.651 70.8174 337.642 70.5654C337.623 69.7068 337.427 69.0394 337.054 68.5634C336.69 68.0781 336.153 67.8354 335.444 67.8354C334.734 67.8354 334.198 68.0781 333.834 68.5634C333.47 69.0394 333.278 69.7068 333.26 70.5654L333.246 71.7134L333.26 72.8754C333.278 73.7434 333.47 74.4154 333.834 74.8914C334.198 75.3674 334.734 75.6054 335.444 75.6054Z" fill="#00CCCC"/>
<rect x="380.686" y="48.3137" width="16" height="16" rx="4" transform="rotate(-45 380.686 48.3137)" fill="#00CCCC"/>
<path d="M384.318 76.6274C384.225 76.6274 384.15 76.5994 384.094 76.5434C384.038 76.4781 384.01 76.3988 384.01 76.3054V68.4094L381.658 70.2154C381.593 70.2714 381.523 70.2994 381.448 70.2994C381.364 70.2994 381.285 70.2528 381.21 70.1594L380.874 69.7254C380.827 69.6601 380.804 69.5948 380.804 69.5294C380.804 69.4268 380.851 69.3428 380.944 69.2774L383.982 66.9254C384.085 66.8601 384.206 66.8274 384.346 66.8274H385.004C385.097 66.8274 385.172 66.8601 385.228 66.9254C385.293 66.9814 385.326 67.0561 385.326 67.1494V76.3054C385.326 76.3988 385.293 76.4781 385.228 76.5434C385.172 76.5994 385.097 76.6274 385.004 76.6274H384.318ZM390.825 76.7674C389.621 76.7674 388.739 76.4174 388.179 75.7174C387.629 75.0081 387.335 74.0841 387.297 72.9454L387.283 71.7414L387.297 70.4954C387.325 69.3661 387.619 68.4514 388.179 67.7514C388.749 67.0421 389.631 66.6874 390.825 66.6874C392.029 66.6874 392.911 67.0421 393.471 67.7514C394.041 68.4514 394.339 69.3661 394.367 70.4954C394.377 70.7568 394.381 71.1721 394.381 71.7414C394.381 72.2921 394.377 72.6934 394.367 72.9454C394.33 74.0841 394.031 75.0081 393.471 75.7174C392.921 76.4174 392.039 76.7674 390.825 76.7674ZM390.825 75.6054C391.544 75.6054 392.085 75.3674 392.449 74.8914C392.813 74.4154 393.005 73.7434 393.023 72.8754C393.033 72.6048 393.037 72.2174 393.037 71.7134C393.037 71.2001 393.033 70.8174 393.023 70.5654C393.005 69.7068 392.809 69.0394 392.435 68.5634C392.071 68.0781 391.535 67.8354 390.825 67.8354C390.116 67.8354 389.579 68.0781 389.215 68.5634C388.851 69.0394 388.66 69.7068 388.641 70.5654L388.627 71.7134L388.641 72.8754C388.66 73.7434 388.851 74.4154 389.215 74.8914C389.579 75.3674 390.116 75.6054 390.825 75.6054ZM399.335 76.7674C398.635 76.7674 398.028 76.6414 397.515 76.3894C397.001 76.1374 396.609 75.8108 396.339 75.4094C396.068 74.9988 395.923 74.5601 395.905 74.0934V74.0654C395.905 73.9908 395.933 73.9301 395.989 73.8834C396.045 73.8368 396.11 73.8134 396.185 73.8134H396.871C397.067 73.8134 397.193 73.9161 397.249 74.1214C397.389 74.6254 397.645 75.0034 398.019 75.2554C398.401 75.4981 398.84 75.6194 399.335 75.6194C399.969 75.6194 400.497 75.4281 400.917 75.0454C401.337 74.6534 401.547 74.1168 401.547 73.4354C401.547 72.8101 401.337 72.3154 400.917 71.9514C400.497 71.5781 399.969 71.3914 399.335 71.3914C398.999 71.3914 398.728 71.4334 398.523 71.5174C398.317 71.6014 398.107 71.7228 397.893 71.8814C397.771 71.9748 397.669 72.0448 397.585 72.0914C397.51 72.1288 397.426 72.1474 397.333 72.1474H396.661C396.577 72.1474 396.502 72.1194 396.437 72.0634C396.371 71.9981 396.343 71.9234 396.353 71.8394L396.787 67.1774C396.815 66.9441 396.931 66.8274 397.137 66.8274H401.981C402.083 66.8274 402.163 66.8554 402.219 66.9114C402.275 66.9674 402.303 67.0468 402.303 67.1494V67.6674C402.303 67.7608 402.27 67.8354 402.205 67.8914C402.149 67.9474 402.074 67.9754 401.981 67.9754H397.949L397.697 70.7894C398.145 70.4721 398.747 70.3134 399.503 70.3134C400.128 70.3134 400.697 70.4394 401.211 70.6914C401.724 70.9341 402.13 71.2934 402.429 71.7694C402.737 72.2454 402.891 72.8101 402.891 73.4634C402.891 74.1541 402.737 74.7514 402.429 75.2554C402.13 75.7501 401.71 76.1281 401.169 76.3894C400.637 76.6414 400.025 76.7674 399.335 76.7674Z" fill="#00CCCC"/>
</svg>
