<svg width="141" height="40" viewBox="0 0 141 40" fill="none" xmlns="http://www.w3.org/2000/svg">
<path d="M0 15.6C0 12.2531 0 10.5797 0.331561 9.19866C1.38498 4.81087 4.81087 1.38498 9.19866 0.331561C10.5797 0 12.2531 0 15.6 0H125.215C128.561 0 130.235 0 131.616 0.331561C136.004 1.38498 139.43 4.81087 140.483 9.19866C140.815 10.5797 140.815 12.2531 140.815 15.6V24.4C140.815 27.7469 140.815 29.4203 140.483 30.8013C139.43 35.1891 136.004 38.615 131.616 39.6684C130.235 40 128.561 40 125.215 40H15.6C12.2531 40 10.5797 40 9.19866 39.6684C4.81087 38.615 1.38498 35.1891 0.331561 30.8013C0 29.4203 0 27.7469 0 24.4V15.6Z" fill="#F8F7F7"/>
<g clip-path="url(#clip0)">
<path d="M21.9642 14.9105C23.208 14.9105 24.3483 15.3595 25.2336 16.1034L26.4381 14.6678C25.2272 13.65 23.6667 13.0354 21.9645 13.0354C18.1243 13.0357 15 16.16 15 19.9999C15 23.8398 18.1243 26.9638 21.9642 26.9638C23.6664 26.9638 25.2269 26.3492 26.4378 25.3313L25.2334 23.8958C24.3483 24.6394 23.208 25.0887 21.9639 25.0887C19.1577 25.0887 16.8746 22.8061 16.8746 19.9999C16.8751 17.1937 19.158 14.9105 21.9642 14.9105Z" fill="#231F20"/>
<path d="M60.5157 13.4375H56.7657C56.2481 13.4375 55.8285 13.8574 55.8285 14.3748V25.6246C55.8285 26.1423 56.2484 26.5619 56.7657 26.5619H60.5157C64.1345 26.5619 67.078 23.6181 67.078 19.9996C67.078 16.3813 64.1345 13.4375 60.5157 13.4375ZM60.5157 24.6873H57.7033V15.3126H60.5157C63.1005 15.3126 65.2032 17.4153 65.2032 20.0001C65.2032 22.5846 63.1005 24.6873 60.5157 24.6873Z" fill="#231F20"/>
<path d="M72.1545 14.3751V25.6249C72.1545 26.1426 72.5744 26.5622 73.0918 26.5622H80.9043V24.6874H74.0296V20.9372H78.4044V19.0623H74.0296V15.3126H80.9043V13.4378H73.0918C72.5744 13.4375 72.1545 13.8574 72.1545 14.3751Z" fill="#231F20"/>
<path d="M100.532 14.3751V25.6249C100.532 26.1426 100.952 26.5622 101.47 26.5622H109.282V24.6874H102.407V20.9372H106.782V19.0623H102.407V15.3126H109.282V13.4378H101.47C100.952 13.4375 100.532 13.8574 100.532 14.3751Z" fill="#231F20"/>
<path d="M91.6104 13.4375H87.5478C87.0301 13.4375 86.6105 13.8574 86.6105 14.3748V26.5619H88.4856V20.9371H91.6107C93.6784 20.9371 95.3606 19.2549 95.3606 17.1874C95.3604 15.1198 93.6781 13.4375 91.6104 13.4375ZM91.6104 19.0623H88.4853V15.3126H91.6104C92.6444 15.3126 93.4852 16.1535 93.4852 17.1874C93.4852 18.2214 92.6444 19.0623 91.6104 19.0623Z" fill="#231F20"/>
<path d="M123.939 13.4375V23.0355L116.222 13.7747C115.97 13.4711 115.554 13.3585 115.183 13.4932C114.812 13.6276 114.564 13.9802 114.564 14.3747V26.5619H116.44V16.9644L124.157 26.2249C124.338 26.4428 124.604 26.5622 124.877 26.5622C124.984 26.5622 125.092 26.5444 125.196 26.5064C125.567 26.3717 125.815 26.0194 125.815 25.6249V13.4375H123.939V13.4375Z" fill="#231F20"/>
<path d="M50.5024 16.8037C50.4978 16.7794 50.4938 16.7552 50.4873 16.7315C50.4833 16.7172 50.4784 16.7038 50.4738 16.6897C50.4671 16.6687 50.4601 16.6477 50.4517 16.627C50.4455 16.6127 50.4391 16.599 50.4326 16.5852C50.4235 16.5659 50.414 16.5467 50.4033 16.5281C50.3957 16.5144 50.3871 16.5015 50.3788 16.4883C50.3672 16.4705 50.3553 16.453 50.3424 16.436C50.333 16.4234 50.3233 16.4113 50.313 16.3991C50.2996 16.383 50.285 16.3676 50.2705 16.3525C50.2592 16.3412 50.2479 16.3299 50.236 16.3191C50.2204 16.3049 50.2042 16.2914 50.1873 16.2785C50.1743 16.2685 50.1617 16.2583 50.1482 16.2491C50.1434 16.2456 50.139 16.2416 50.1339 16.2383L40.9938 10.1444C40.7053 9.9518 40.3291 9.9518 40.0406 10.1444L30.8999 16.2381C30.8951 16.2413 30.8908 16.2453 30.8856 16.2488C30.8722 16.2583 30.8595 16.2682 30.8469 16.2782C30.8302 16.2914 30.8137 16.3049 30.7981 16.3189C30.7863 16.3296 30.7749 16.341 30.7639 16.3523C30.7488 16.3674 30.7348 16.3827 30.7211 16.3989C30.7108 16.411 30.7011 16.4231 30.6917 16.4358C30.6788 16.4527 30.6669 16.4702 30.6554 16.488C30.647 16.5012 30.6387 16.5141 30.6308 16.5279C30.6201 16.5465 30.6106 16.5656 30.6018 16.585C30.5953 16.5987 30.5883 16.6124 30.5826 16.6267C30.5743 16.6472 30.567 16.6682 30.5603 16.6895C30.5557 16.7035 30.5509 16.7172 30.5471 16.7312C30.5406 16.7549 30.5363 16.7789 30.532 16.8034C30.5296 16.8158 30.5266 16.8279 30.525 16.8406C30.5201 16.8777 30.5175 16.9149 30.5175 16.9529V23.0466C30.5175 23.0846 30.5204 23.1217 30.525 23.1589C30.5269 23.1716 30.5296 23.1837 30.532 23.1961C30.5363 23.2203 30.5406 23.2445 30.5471 23.2683C30.5509 23.2825 30.5557 23.2963 30.5603 23.31C30.567 23.331 30.5743 23.352 30.5826 23.3728C30.5883 23.387 30.5953 23.4008 30.6018 23.4142C30.6106 23.4336 30.6201 23.4527 30.6308 23.4716C30.6384 23.4851 30.647 23.4983 30.6554 23.5109C30.6669 23.5287 30.6788 23.5462 30.6917 23.5632C30.7011 23.5761 30.7108 23.5882 30.7211 23.6003C30.7348 23.6165 30.7491 23.6319 30.7639 23.6469C30.7749 23.6582 30.7863 23.6698 30.7981 23.6803C30.8137 23.6946 30.8302 23.7083 30.8469 23.7213C30.8598 23.7312 30.8724 23.7412 30.8856 23.7506C30.8908 23.7541 30.8948 23.7579 30.8999 23.7611L40.0406 29.8554C40.185 29.9515 40.3509 30 40.5173 30C40.6835 30 40.8497 29.9515 40.994 29.8554L50.1347 23.7617C50.1399 23.7584 50.1442 23.7547 50.149 23.7512C50.1625 23.7417 50.1751 23.7318 50.1881 23.7218C50.2048 23.7086 50.2212 23.6949 50.2368 23.6809C50.2487 23.6704 50.26 23.6588 50.2713 23.6475C50.2861 23.6324 50.3004 23.617 50.3138 23.6009C50.3241 23.5888 50.3338 23.5766 50.3432 23.5637C50.3561 23.5465 50.368 23.5292 50.3796 23.5115C50.3879 23.4985 50.3963 23.4853 50.4041 23.4721C50.4148 23.4533 50.4243 23.4342 50.4334 23.4148C50.4399 23.401 50.4466 23.3876 50.4526 23.3733C50.4609 23.3526 50.4679 23.3315 50.4746 23.3105C50.4792 23.2965 50.4841 23.2828 50.4881 23.2688C50.4943 23.2451 50.4986 23.2208 50.5032 23.1966C50.5053 23.1842 50.5086 23.1721 50.5099 23.1594C50.5148 23.1223 50.5175 23.0851 50.5175 23.0471V16.9532C50.5175 16.9152 50.5145 16.878 50.5099 16.8408C50.5078 16.8285 50.5045 16.8161 50.5024 16.8037ZM40.5171 22.0331L37.4776 20.0001L40.5171 17.9669L43.5568 20.0001L40.5171 22.0331ZM39.6579 16.474L35.9319 18.9662L32.9242 16.9542L39.6579 12.4652V16.474ZM34.3859 19.9999L32.2361 21.4379V18.5619L34.3859 19.9999ZM35.9319 21.0341L39.6579 23.526V27.5348L32.9242 23.0458L35.9319 21.0341ZM41.3765 23.526L45.1025 21.0341L48.1104 23.0458L41.3765 27.5348V23.526ZM46.6482 19.9999L48.7983 18.5616V21.4379L46.6482 19.9999ZM45.1025 18.9662L41.3765 16.4743V12.4652L48.1104 16.9542L45.1025 18.9662Z" fill="#231F20"/>
</g>
<defs>
<clipPath id="clip0">
<rect width="110.815" height="20" fill="white" transform="translate(15 10)"/>
</clipPath>
</defs>
</svg>
