<svg width="112" height="40" viewBox="0 0 112 40" fill="none" xmlns="http://www.w3.org/2000/svg">
<path d="M0 15.6C0 12.2531 0 10.5797 0.331561 9.19866C1.38498 4.81087 4.81087 1.38498 9.19866 0.331561C10.5797 0 12.2531 0 15.6 0H96.4C99.7469 0 101.42 0 102.801 0.331561C107.189 1.38498 110.615 4.81087 111.668 9.19866C112 10.5797 112 12.2531 112 15.6V24.4C112 27.7469 112 29.4203 111.668 30.8013C110.615 35.1891 107.189 38.615 102.801 39.6684C101.42 40 99.7469 40 96.4 40H15.6C12.2531 40 10.5797 40 9.19866 39.6684C4.81087 38.615 1.38498 35.1891 0.331561 30.8013C0 29.4203 0 27.7469 0 24.4V15.6Z" fill="#F8F7F7"/>
<path fill-rule="evenodd" clip-rule="evenodd" d="M95.996 23.8499C95.7422 23.6662 95.541 23.6399 95.3748 23.9898C92.523 30.157 87.7204 27.0778 88.2016 27.349C89.2688 26.8591 92.0682 24.6197 91.6482 21.5142C91.3946 19.6159 89.7674 18.7762 88.0354 19.0823C85.0174 19.6072 83.9152 22.8614 84.475 25.7394C84.5712 26.238 84.7462 26.6404 84.93 27.0428C81.527 29.8159 80.1712 24.5672 80.0136 23.9374C80.005 23.9024 82.6468 21.7067 83.3816 16.4667C84.1514 10.9819 82.4018 9.97586 80.6086 10.0109C77.2932 10.0721 76.4008 16.9916 77.5992 22.7564C77.503 22.7826 77.0306 23.0451 76.2784 23.0713C75.736 21.3655 73.4178 19.8696 72.8142 20.447C71.3008 21.8904 73.1816 24.7072 74.5114 24.9259C73.7152 29.8334 68.729 28.6174 69.6562 22.4677C71.2746 19.4585 72.5168 14.9709 72.2894 12.2678C72.2106 11.3143 71.502 10.0284 69.9012 10.0896C66.822 10.2121 66.4896 17.1316 66.8482 22.0478C66.8308 21.9254 66.6558 22.6427 65.396 23.0013C65.0986 21.348 62.4306 19.6772 61.8008 20.482C60.6286 21.9779 62.6668 24.6459 63.629 24.8296C62.833 29.7372 57.8468 28.5212 58.774 22.3715C60.4012 19.3623 61.6346 14.8834 61.4158 12.1803C61.3372 11.2268 60.6286 9.94087 59.0276 10.0021C55.9484 10.1246 55.616 17.0441 55.9748 21.9604C55.9572 21.8379 55.7822 22.5815 54.47 22.9314C54.4264 20.7794 51.7496 19.7996 51.1022 20.482C49.9562 21.7067 51.3646 24.2173 52.668 24.8296C51.872 29.7372 46.8858 28.5212 47.813 22.3715C49.4314 19.3623 50.6736 14.8746 50.4462 12.1716C50.3762 11.2268 49.6676 9.94087 48.0666 10.0021C44.9874 10.1246 44.7426 17.394 45.1012 22.3103C44.0864 26.6579 40.6836 32.0816 41.1296 21.208C41.1734 20.447 41.2172 20.1583 40.841 19.8696C40.5524 19.6509 39.905 19.7559 39.555 19.7647C39.1264 19.7822 39.0128 20.0358 38.9252 20.412C38.7066 21.3917 38.6628 22.3453 38.6278 23.6487C38.6104 24.261 38.5578 24.541 38.3216 25.372C38.0854 26.203 36.7558 27.7164 36.021 27.4627C35.0062 27.1128 35.3386 24.2523 35.531 22.284C35.6886 20.7269 35.1812 20.0358 33.8865 19.7822C33.1254 19.6247 32.6618 19.6509 31.8745 19.3972C31.1222 19.1611 30.956 17.7439 29.3639 18.2163C28.4891 18.4787 29.049 20.3245 28.839 21.6979C27.8068 28.4425 25.6636 28.6262 24.6663 25.3545C29.1452 14.3673 25.9523 10.0371 24.089 10.0371C22.147 10.0371 19.925 11.3755 20.861 19.9484C20.4061 19.8171 20.2662 19.7472 19.7588 19.7472C16.9333 19.7384 15 22.0303 15 24.8559C15 27.6814 16.9333 29.9733 19.7676 29.9733C21.4384 29.9733 22.6106 29.2123 23.5029 28.0401C24.0802 28.8711 24.7888 29.9908 26.0835 29.9384C29.9325 29.7896 31.0522 21.8904 31.1834 21.4442C31.5946 21.5055 31.9882 21.6279 32.3644 21.6892C32.9942 21.7854 33.0467 22.0391 33.0292 22.6689C32.863 28.0401 33.8515 29.9209 36.0998 29.9209C37.3506 29.9209 38.4704 28.6874 39.2402 27.8126C39.8176 29.0023 40.7272 29.8859 41.9608 29.9209C44.935 29.9908 46.081 25.2495 45.976 25.8706C45.8972 26.3605 46.9382 29.8859 50.0088 29.9034C53.8052 29.9209 54.5138 25.7482 54.5926 25.0483C54.61 24.9259 54.6014 24.9084 54.5926 25.0483C54.5926 25.0571 54.5926 25.0746 54.5926 25.0921C55.7998 24.8646 56.4208 24.226 56.4208 24.226C56.4208 24.226 57.3918 29.9733 60.9698 29.9121C64.6876 29.8421 65.396 26.0718 65.4836 25.337C65.501 25.1795 65.4924 25.1621 65.4836 25.337C65.4836 25.3458 65.4836 25.3545 65.4836 25.3545C66.9182 24.8296 67.2944 24.3135 67.2944 24.3135C67.2944 24.3135 68.0642 29.9471 71.8432 29.9996C75.2112 30.0434 76.462 26.5879 76.4708 25.1446C77.0394 25.1533 78.0892 24.8034 78.063 24.7859C78.063 24.7859 79.2964 29.7109 82.743 29.9646C84.3614 30.087 85.5772 29.0548 86.2684 28.5824C87.8954 29.9034 93.3104 31.583 96.7308 25.7831C97.2206 24.9609 96.1796 23.9724 95.996 23.8499ZM19.6276 28.0576C17.9743 28.0576 16.9158 26.5267 16.9158 24.8821C16.9158 23.2375 17.8868 21.7067 19.5401 21.7067C20.2837 21.7067 20.6948 21.7854 21.2809 22.2928C21.3859 22.7039 21.6833 23.6574 21.832 24.0948C22.0245 24.6722 22.2607 25.1708 22.4881 25.7044C22.147 27.0866 21.0622 28.0576 19.6276 28.0576ZM23.6516 22.3365C23.5816 22.2228 23.5991 22.2928 23.5204 22.1878C23.2229 21.3655 22.6368 19.5285 22.5669 17.4377C22.4881 15.0758 22.8818 12.3028 24.0452 12.3028C24.8325 12.3028 25.6723 17.9189 23.6516 22.3365ZM46.9294 19.8784C46.7458 18.4787 46.737 12.2241 48.233 12.399C49.064 12.7314 47.708 18.6274 46.9294 19.8784ZM57.8904 19.8784C57.7068 18.4787 57.698 12.2241 59.194 12.399C60.025 12.7314 58.669 18.6274 57.8904 19.8784ZM68.764 19.9659C68.5802 18.5662 68.5716 12.3115 70.0674 12.4865C70.8984 12.8102 69.5426 18.7149 68.764 19.9659ZM80.766 12.0229C82.1394 11.8829 82.0782 17.8751 79.3314 21.6542C78.9726 20.2895 78.4304 12.4952 80.766 12.0229ZM86.5396 24.9259C86.1022 22.6952 87.2394 21.2343 88.4116 21.0768C88.8228 21.0156 89.4176 21.278 89.5312 21.7767C89.7238 22.7127 89.505 24.1036 86.872 25.8619C86.8808 25.8706 86.6358 25.4157 86.5396 24.9259ZM40.01 18.0501C40.946 18.0501 41.707 17.289 41.707 16.353C41.707 15.417 40.946 14.6559 40.01 14.6559C39.074 14.6559 38.3128 15.417 38.3128 16.353C38.3128 17.289 39.074 18.0501 40.01 18.0501Z" fill="#EA4C89"/>
</svg>
