<svg width="70" height="28" viewBox="0 0 70 28" version="1.1" xmlns="http://www.w3.org/2000/svg" xmlns:xlink="http://www.w3.org/1999/xlink">
<title>Page 1</title>
<desc>Created using Figma</desc>
<g id="Canvas" transform="translate(-6527 1502)">
<g id="Page 1">
<g id="Fill 1">
<use xlink:href="#path0_fill" transform="translate(6564.5 -1495.59)" fill="#324292"/>
</g>
<g id="Fill 3">
<use xlink:href="#path1_fill" transform="translate(6527 -1502)" fill="#324292"/>
</g>
<g id="Fill 5">
<use xlink:href="#path2_fill" transform="translate(6551.64 -1502)" fill="#324292"/>
</g>
<g id="Fill 7">
<use xlink:href="#path3_fill" transform="translate(6590.21 -1501.05)" fill="#00CCCC"/>
</g>
</g>
</g>
<defs>
<path id="path0_fill" fill-rule="evenodd" d="M 14.81 0L 2.14286 0C 0.959524 0 0 0.956271 0 2.13559C 0 3.31492 0.959524 4.27119 2.14286 4.27119L 14.8633 4.27119C 18.3614 4.27119 21.3219 6.99953 21.4257 10.4839C 21.5338 14.1049 18.6095 17.0847 15 17.0847L 8.57143 17.0847L 8.57143 9.59878C 8.57143 8.41898 7.6119 7.46319 6.42857 7.46319C 5.24524 7.46319 4.28571 8.41898 4.28571 9.59878L 4.28571 19.2184C 4.28571 20.3987 5.24619 21.3559 6.43048 21.3559L 15 21.3559C 20.8457 21.3559 25.6129 16.6662 25.7129 10.8635C 25.8152 4.88956 20.8052 0 14.81 0Z"/>
<path id="path1_fill" fill-rule="evenodd" d="M 10.8048 6.40725C 8.36 6.38685 6.1 7.18793 4.28571 8.54854L 4.28571 2.13559C 4.28571 0.956271 3.32619 0 2.14286 0C 0.959048 0 0 0.956271 0 2.13559L 0 25.6271C 0 26.8064 0.959048 27.7627 2.14286 27.7627C 3.32619 27.7627 4.28571 26.8064 4.28571 25.6271L 4.28571 17.2209C 4.28571 13.7347 7.02286 10.7847 10.5195 10.6808C 14.1524 10.5731 17.1429 13.4875 17.1429 17.0847L 17.1429 25.6271C 17.1429 26.8064 18.1019 27.7627 19.2857 27.7627C 20.469 27.7627 21.4286 26.8064 21.4286 25.6271L 21.4286 17.2561C 21.4286 11.3661 16.7152 6.45661 10.8048 6.40725Z"/>
<path id="path2_fill" fill-rule="evenodd" d="M 2.14286 0C 0.959524 0 0 0.956271 0 2.13559L 0 17.0847C 0 22.9823 4.79714 27.7627 10.7143 27.7627C 11.8976 27.7627 12.8571 26.8064 12.8571 25.6271C 12.8571 24.4478 11.8976 23.4915 10.7143 23.4915C 7.16381 23.4915 4.28571 20.6232 4.28571 17.0847L 4.28571 10.678L 8.57143 10.678C 9.75476 10.678 10.7143 9.72169 10.7143 8.54237C 10.7143 7.36305 9.75476 6.40678 8.57143 6.40678L 4.30714 6.40678C 4.29571 6.40678 4.28571 6.39681 4.28571 6.38542L 4.28571 2.13559C 4.28571 0.956271 3.32619 0 2.14286 0Z"/>
<path id="path3_fill" fill-rule="evenodd" d="M 3.21429 6.40678C 1.43905 6.40678 0 4.97261 0 3.20339C 0 1.43417 1.43905 0 3.21429 0C 4.98952 0 6.42857 1.43417 6.42857 3.20339C 6.42857 4.97261 4.98952 6.40678 3.21429 6.40678Z"/>
</defs>
</svg>
